# xmcd
# 
# Track frame offsets:
#     150
#     17191
#     34291
#     49210
#     72611
#     88683
#     107145
#     127940
#     143155
#     162270
#     179159
#     197499
# 
# Disc length: 2868
# 
# Revision: 3
# Processed by: cddbd v1.5.2PL0 Copyright (c) Steve Scherf et al.
# Submitted via: fre:ac v1.0.31
# 
DISCID=b00b320c
DTITLE=Ilse DeLange - Eye Of The Hurricane
DYEAR=2012
DGENRE=Pop
TTITLE0=Hurricane
TTITLE1=Dance on the Heartbrake
TTITLE2=Learning to Swim
TTITLE3=Space Cowboy
TTITLE4=Magic
TTITLE5=Time Will Have to Wait
TTITLE6=I Need for You
TTITLE7=Fold This World
TTITLE8=We are Diamonds
TTITLE9=Just Kids
TTITLE10=We are One
TTITLE11=Winter of Love
EXTD=
EXTT0=
EXTT1=
EXTT2=
EXTT3=
EXTT4=
EXTT5=
EXTT6=
EXTT7=
EXTT8=
EXTT9=
EXTT10=
EXTT11=
PLAYORDER=
